<?xml version="1.0" encoding="UTF-8" standalone="no"?>
<!DOCTYPE svg PUBLIC "-//W3C//DTD SVG 1.1//EN" "http://www.w3.org/Graphics/SVG/1.1/DTD/svg11.dtd">
<svg width="100%" height="100%" viewBox="0 0 370 145" version="1.1" xmlns="http://www.w3.org/2000/svg" xmlns:xlink="http://www.w3.org/1999/xlink" xml:space="preserve" xmlns:serif="http://www.serif.com/" style="fill-rule:evenodd;clip-rule:evenodd;stroke-linejoin:round;stroke-miterlimit:1.41421;">
    <g transform="matrix(1,0,0,1,5.57731,-0.13732)">
        <g transform="matrix(-4.67701,-5.72768e-16,6.32734e-16,-5.16667,369.319,518.029)">
            <path d="M59.798,98.386C61.344,98.386 62.171,97.595 62.751,95.556L63.682,92.691L71.751,92.691L72.665,95.556C73.245,97.543 74.141,98.386 75.688,98.386C77.358,98.386 78.448,97.402 78.448,95.873C78.448,95.258 78.29,94.554 77.973,93.57L72.682,78.013C71.716,75.148 70.38,74.023 67.848,74.023C65.317,74.023 63.946,75.166 62.997,78.013L57.688,93.57C57.284,94.748 57.126,95.416 57.126,95.996C57.126,97.402 58.216,98.386 59.798,98.386ZM64.878,88.49L67.602,79.402L67.883,79.402L70.573,88.49L64.878,88.49Z" style="fill:rgb(66,51,96);fill-rule:nonzero;"/>
        </g>
        <g transform="matrix(1,0,0,1,-165,-35.6107)">
            <path d="M303.107,155.248C303.107,165.419 308.465,171.232 318.001,171.232C327.447,171.232 332.805,165.51 332.805,155.248L332.805,63.519C332.805,52.439 325.721,45.264 315.095,45.264C309.01,45.264 302.562,47.353 295.478,51.894L280.674,61.793C275.316,65.154 272.591,69.15 272.591,73.6C272.591,79.594 276.951,83.954 282.945,83.954C285.942,83.954 288.485,83.045 293.207,80.048L302.744,73.6L303.107,73.6L303.107,155.248Z" style="fill:rgb(66,51,96);fill-rule:nonzero;"/>
        </g>
        <g transform="matrix(1,0,0,1,-95,-35.6107)">
            <path d="M303.107,155.248C303.107,165.419 308.465,171.232 318.001,171.232C327.447,171.232 332.805,165.51 332.805,155.248L332.805,63.519C332.805,52.439 325.721,45.264 315.095,45.264C309.01,45.264 302.562,47.353 295.478,51.894L280.674,61.793C275.316,65.154 272.591,69.15 272.591,73.6C272.591,79.594 276.951,83.954 282.945,83.954C285.942,83.954 288.485,83.045 293.207,80.048L302.744,73.6L303.107,73.6L303.107,155.248Z" style="fill:rgb(66,51,96);fill-rule:nonzero;"/>
        </g>
        <g transform="matrix(1,0,0,1,-137,-30.5138)">
            <path d="M442.568,166.135C451.65,166.135 457.735,159.959 457.463,151.059L456.918,118.636L488.433,66.414C491.975,60.511 493.428,56.787 493.428,53.154C493.428,45.798 487.615,40.167 479.986,40.167C473.992,40.167 469.179,43.8 465.364,51.156L443.022,92.571L441.933,92.571L420.227,51.066C416.23,43.346 412.053,40.167 405.604,40.167C397.34,40.167 391.709,45.616 391.709,53.699C391.709,57.241 392.98,60.783 396.068,65.96L428.037,118.636L427.401,151.059C427.129,159.959 433.305,166.135 442.568,166.135Z" style="fill:rgb(164,149,195);fill-rule:nonzero;"/>
        </g>
    </g>
</svg>
